<svg width="394" height="168" viewBox="0 0 394 168" fill="none" xmlns="http://www.w3.org/2000/svg">
<path d="M173.095 79.4459H187.276V124.264H204.293V92.5183H216.583C220.237 92.5183 223.201 89.5929 223.201 85.9821V53.303C223.201 49.6941 220.239 46.7668 216.583 46.7668C212.927 46.7668 209.965 49.6941 209.965 53.303V79.4478H204.293V31.8255C204.293 27.1855 200.482 23.4224 195.784 23.4224C191.087 23.4224 187.276 27.1855 187.276 31.8255V66.3735H179.713V42.0975C179.713 38.4886 176.751 35.5613 173.095 35.5613C169.439 35.5613 166.478 38.4867 166.478 42.0956V72.9077C166.478 76.5166 169.439 79.4439 173.095 79.4439V79.4459Z" fill="#E8E9E9"/>
<path d="M75.9542 106.277H84.2358V132.404H94.1734V113.897H101.351C103.485 113.897 105.216 112.192 105.216 110.087V91.0364C105.216 88.9326 103.486 87.226 101.351 87.226C99.216 87.226 97.4862 88.9326 97.4862 91.0364V106.278H94.1734V78.5159C94.1734 75.811 91.9482 73.6172 89.2046 73.6172C86.461 73.6172 84.2358 75.811 84.2358 78.5159V98.6559H79.819V84.504C79.819 82.4002 78.0893 80.6937 75.9542 80.6937C73.8191 80.6937 72.0894 82.3991 72.0894 84.5029V102.465C72.0894 104.569 73.8191 106.275 75.9542 106.275V106.277Z" fill="#F1F2F2"/>
<path d="M324.033 112.121H330.533V132.493H338.333V118.063H343.967C345.641 118.063 347 116.733 347 115.092V100.237C347 98.5964 345.642 97.2657 343.967 97.2657C342.291 97.2657 340.933 98.5964 340.933 100.237V112.121H338.333V90.4739C338.333 88.3647 336.587 86.6541 334.433 86.6541C332.28 86.6541 330.533 88.3647 330.533 90.4739V106.178H327.067V95.1432C327.067 93.5027 325.709 92.172 324.033 92.172C322.358 92.172 321 93.5018 321 95.1423V109.149C321 110.789 322.358 112.12 324.033 112.12V112.121Z" fill="#F8F8F8"/>
<path d="M55.6674 128.034C30.876 127.705 10.4456 137.766 1.13928 144.286C-0.0163207 145.096 0.234703 146.799 1.57195 147.253C107.774 183.287 299.311 162.739 392.104 146.288C394.112 145.932 394.064 142.938 392.064 142.539C372.3 138.605 340.35 130.268 317.021 117.581C290.286 103.042 257.596 98.3355 242.602 97.6564C241.247 97.5951 239.981 98.1886 238.969 99.0881C233.792 103.69 220.56 111.215 198.186 113.49C166.891 116.671 157.164 105.309 144.9 113.49C132.636 121.67 89.9225 128.488 55.6674 128.034Z" fill="#F8F8F8"/>
<path opacity="0.8" fill-rule="evenodd" clip-rule="evenodd" d="M43.565 93.3423C43.842 93.6132 44.2575 93.6881 44.6123 93.5309L44.613 93.5306C44.9678 93.3735 45.1904 93.016 45.1742 92.6295L45.0686 90.1171C45.0447 89.5518 45.254 89.0066 45.6414 88.6213C45.6446 88.6175 45.6474 88.6146 45.6508 88.6115L47.4144 86.8093C47.6853 86.5328 47.7591 86.1194 47.601 85.7668C47.4429 85.4142 47.0854 85.1934 46.6976 85.2095L44.1764 85.3148C43.6171 85.3383 43.0674 85.1276 42.668 84.7367L40.8676 82.9757C40.5906 82.7048 40.1751 82.6299 39.8203 82.787C39.4655 82.9442 39.2429 83.3017 39.259 83.6881L39.3647 86.2006C39.3883 86.758 39.1769 87.3057 38.7856 87.7024L37.0096 89.5004C36.7368 89.7761 36.6607 90.1897 36.8184 90.5433C36.9761 90.8969 37.3335 91.1193 37.7216 91.1039L40.2546 91.0031L40.2665 91.0027C40.8138 90.974 41.3595 91.1848 41.7646 91.5813L43.565 93.3423Z" fill="#E8E9E9"/>
<path opacity="0.7" fill-rule="evenodd" clip-rule="evenodd" d="M253.476 26.8383C253.447 27.1201 253.593 27.3918 253.845 27.5232L253.845 27.5234C254.097 27.6548 254.405 27.6192 254.62 27.434L256.019 26.2291C256.333 25.9579 256.743 25.8293 257.141 25.8753C257.145 25.8754 257.148 25.8757 257.151 25.8762L258.992 26.0639C259.275 26.0929 259.547 25.9468 259.678 25.6958C259.809 25.4447 259.773 25.1397 259.587 24.9253L258.378 23.5313C258.11 23.2221 257.981 22.8118 258.024 22.4053L258.218 20.5735C258.248 20.2916 258.102 20.0199 257.85 19.8886C257.598 19.7572 257.29 19.7928 257.075 19.978L255.676 21.1829C255.366 21.4503 254.954 21.5789 254.547 21.5358L252.703 21.3392C252.42 21.3087 252.147 21.4536 252.015 21.7048C251.883 21.9561 251.918 22.2618 252.104 22.4768L253.316 23.8795L253.321 23.8861C253.587 24.1861 253.714 24.5942 253.67 25.0064L253.476 26.8383Z" fill="#EDEDED"/>
<g opacity="0.8">
<path d="M129.582 8.52065H127.22C126.596 8.52065 126.09 8.01628 126.09 7.39485C126.09 6.77341 126.596 6.26904 127.22 6.26904H129.582C130.206 6.26904 130.712 6.77341 130.712 7.39485C130.712 8.01628 130.206 8.52065 129.582 8.52065Z" fill="#E8E9E9"/>
<path d="M136.678 8.52065H134.316C133.692 8.52065 133.186 8.01628 133.186 7.39485C133.186 6.77341 133.692 6.26904 134.316 6.26904H136.678C137.301 6.26904 137.807 6.77341 137.807 7.39485C137.807 8.01628 137.301 8.52065 136.678 8.52065Z" fill="#E8E9E9"/>
<path d="M131.954 14.4002C131.331 14.4002 130.825 13.8959 130.825 13.2744V10.9207C130.825 10.2984 131.331 9.79492 131.954 9.79492C132.578 9.79492 133.084 10.2993 133.084 10.9207V13.2744C133.084 13.8959 132.578 14.4002 131.954 14.4002Z" fill="#E8E9E9"/>
<path d="M131.954 4.96455C131.331 4.96455 130.825 4.46018 130.825 3.83874V1.48591C130.825 0.864475 131.331 0.360107 131.954 0.360107C132.578 0.360107 133.084 0.864475 133.084 1.48591V3.83962C133.084 4.46194 132.578 4.96543 131.954 4.96543V4.96455Z" fill="#E8E9E9"/>
</g>
<g opacity="0.7">
<path d="M282.977 79.2262L280.778 80.0803C280.197 80.3058 279.541 80.0183 279.314 79.4387C279.087 78.8591 279.374 78.2057 279.955 77.9802L282.155 77.1261C282.735 76.9007 283.391 77.1881 283.618 77.7677C283.845 78.3473 283.558 79.0007 282.977 79.2262Z" fill="#E8E9E9"/>
<path d="M289.588 76.6567L287.389 77.5107C286.808 77.7362 286.152 77.4488 285.925 76.8691C285.698 76.2895 285.985 75.6361 286.566 75.4106L288.765 74.5566C289.346 74.3311 290.002 74.6185 290.229 75.1981C290.456 75.7777 290.169 76.4312 289.588 76.6567Z" fill="#E8E9E9"/>
<path d="M287.332 83.8438C286.752 84.0691 286.097 83.7819 285.87 83.2027L285.01 81.009C284.783 80.429 285.07 79.7768 285.65 79.5515C286.231 79.3262 286.886 79.6134 287.113 80.1926L287.972 82.3863C288.199 82.9655 287.912 83.6185 287.332 83.8438Z" fill="#E8E9E9"/>
<path d="M283.892 75.0532C283.312 75.2785 282.656 74.9913 282.429 74.4121L281.57 72.2192C281.343 71.64 281.63 70.987 282.211 70.7617C282.791 70.5364 283.446 70.8236 283.673 71.4028L284.532 73.5965C284.76 74.1766 284.473 74.8287 283.892 75.054L283.892 75.0532Z" fill="#E8E9E9"/>
</g>
</svg>
